<?xml version="1.0" standalone="no"?>
<!DOCTYPE svg PUBLIC "-//W3C//DTD SVG 20010904//EN"
 "http://www.w3.org/TR/2001/REC-SVG-20010904/DTD/svg10.dtd">
<svg version="1.0" xmlns="http://www.w3.org/2000/svg"
 width="200.000000pt" height="200.000000pt" viewBox="0 0 200.000000 200.000000"
 preserveAspectRatio="xMidYMid meet">

<g transform="translate(0.000000,200.000000) scale(0.100000,-0.100000)"
fill="#000000" stroke="none">
<path d="M940 1720 l0 -160 60 0 60 0 0 160 0 160 -60 0 -60 0 0 -160z"/>
<path d="M380 1615 l-44 -45 104 -105 c58 -58 109 -105 115 -105 6 0 29 18 50
40 l39 40 -110 110 -109 110 -45 -45z"/>
<path d="M1462 1557 c-56 -56 -102 -107 -102 -113 0 -5 18 -28 40 -49 l40 -39
110 109 110 109 -42 43 c-23 24 -45 43 -48 43 -3 0 -51 -46 -108 -103z"/>
<path d="M896 1424 c-216 -52 -366 -278 -327 -491 18 -97 56 -169 125 -239
176 -175 436 -175 612 0 175 176 175 436 0 612 -66 65 -138 105 -224 123 -67
14 -112 13 -186 -5z m218 -135 c67 -25 133 -86 166 -154 21 -41 25 -65 25
-135 0 -98 -23 -158 -85 -220 -62 -62 -122 -85 -220 -85 -70 0 -94 4 -135 25
-107 52 -175 160 -175 279 0 134 81 249 208 296 56 21 152 18 216 -6z"/>
<path d="M120 1000 l0 -60 160 0 160 0 0 60 0 60 -160 0 -160 0 0 -60z"/>
<path d="M1560 1000 l0 -60 160 0 160 0 0 60 0 60 -160 0 -160 0 0 -60z"/>
<path d="M447 532 l-107 -108 43 -42 43 -42 109 110 109 110 -39 40 c-21 22
-42 40 -45 40 -3 0 -54 -49 -113 -108z"/>
<path d="M1395 600 l-39 -40 109 -110 109 -110 43 42 43 42 -107 108 c-59 59
-110 108 -113 108 -3 0 -24 -18 -45 -40z"/>
<path d="M940 280 l0 -160 60 0 60 0 0 160 0 160 -60 0 -60 0 0 -160z"/>
</g>
</svg>
